<?xml version="1.0" encoding="utf-8" ?>
<svg baseProfile="full" height="800" version="1.1" width="1200" xmlns="http://www.w3.org/2000/svg" xmlns:ev="http://www.w3.org/2001/xml-events" xmlns:xlink="http://www.w3.org/1999/xlink"><defs /><text style="font-family: Inter, sans-serif; font-size: 24px; font-weight: bold" text-anchor="middle" x="600.0" y="30">ALGS Championship: Winners Round 1</text><line stroke="#eee" stroke-width="1" x1="150" x2="1150" y1="750.0" y2="750.0" /><text style="font-family: Inter, sans-serif; font-size: 12px" x="120" y="755.0">0</text><line stroke="#eee" stroke-width="1" x1="150" x2="1150" y1="678.5714285714286" y2="678.5714285714286" /><text style="font-family: Inter, sans-serif; font-size: 12px" x="120" y="683.5714285714286">10</text><line stroke="#eee" stroke-width="1" x1="150" x2="1150" y1="607.1428571428571" y2="607.1428571428571" /><text style="font-family: Inter, sans-serif; font-size: 12px" x="120" y="612.1428571428571">20</text><line stroke="#eee" stroke-width="1" x1="150" x2="1150" y1="535.7142857142858" y2="535.7142857142858" /><text style="font-family: Inter, sans-serif; font-size: 12px" x="120" y="540.7142857142858">30</text><line stroke="#eee" stroke-width="1" x1="150" x2="1150" y1="464.2857142857143" y2="464.2857142857143" /><text style="font-family: Inter, sans-serif; font-size: 12px" x="120" y="469.2857142857143">40</text><line stroke="#eee" stroke-width="1" x1="150" x2="1150" y1="392.85714285714283" y2="392.85714285714283" /><text style="font-family: Inter, sans-serif; font-size: 12px" x="120" y="397.85714285714283">50</text><line stroke="#eee" stroke-width="1" x1="150" x2="1150" y1="321.42857142857144" y2="321.42857142857144" /><text style="font-family: Inter, sans-serif; font-size: 12px" x="120" y="326.42857142857144">60</text><line stroke="#eee" stroke-width="1" x1="150" x2="1150" y1="250.0" y2="250.0" /><text style="font-family: Inter, sans-serif; font-size: 12px" x="120" y="255.0">70</text><line stroke="#eee" stroke-width="1" x1="150" x2="1150" y1="178.57142857142856" y2="178.57142857142856" /><text style="font-family: Inter, sans-serif; font-size: 12px" x="120" y="183.57142857142856">80</text><line stroke="#eee" stroke-width="1" x1="150" x2="1150" y1="107.14285714285714" y2="107.14285714285714" /><text style="font-family: Inter, sans-serif; font-size: 12px" x="120" y="112.14285714285714">90</text><text style="font-family: Inter, sans-serif; font-size: 12px" text-anchor="middle" x="150.0" y="780">Game 1</text><text style="font-family: Inter, sans-serif; font-size: 12px" text-anchor="middle" x="292.8571428571429" y="780">Game 2</text><text style="font-family: Inter, sans-serif; font-size: 12px" text-anchor="middle" x="435.7142857142857" y="780">Game 3</text><text style="font-family: Inter, sans-serif; font-size: 12px" text-anchor="middle" x="578.5714285714286" y="780">Game 4</text><text style="font-family: Inter, sans-serif; font-size: 12px" text-anchor="middle" x="721.4285714285714" y="780">Game 5</text><text style="font-family: Inter, sans-serif; font-size: 12px" text-anchor="middle" x="864.2857142857143" y="780">Game 6</text><text style="font-family: Inter, sans-serif; font-size: 12px" text-anchor="middle" x="1007.1428571428571" y="780">Game 7</text><text style="font-family: Inter, sans-serif; font-size: 12px" text-anchor="middle" x="1150.0" y="780">Game 8</text><path d="M 150.0 585.7142857142857 L 292.8571428571429 507.14285714285717 L 435.7142857142857 507.14285714285717 L 578.5714285714286 350.0 L 721.4285714285714 264.2857142857143 L 864.2857142857143 185.71428571428572 L 1007.1428571428571 185.71428571428572 L 1150.0 50.0" fill="none" stroke="#333" stroke-width="2" /><text style="font-family: Inter, sans-serif; font-size: 12px" x="1160.0" y="50.0">AURORA</text><path d="M 150.0 700.0 L 292.8571428571429 700.0 L 435.7142857142857 464.2857142857143 L 578.5714285714286 400.0 L 721.4285714285714 357.14285714285717 L 864.2857142857143 264.2857142857143 L 1007.1428571428571 192.85714285714286 L 1150.0 192.85714285714286" fill="none" stroke="#333" stroke-width="2" /><text style="font-family: Inter, sans-serif; font-size: 12px" x="1160.0" y="192.85714285714286">ENTER FORCE.36</text><path d="M 150.0 714.2857142857143 L 292.8571428571429 607.1428571428571 L 435.7142857142857 600.0 L 578.5714285714286 592.8571428571429 L 721.4285714285714 499.99999999999994 L 864.2857142857143 364.28571428571433 L 1007.1428571428571 357.14285714285717 L 1150.0 271.42857142857144" fill="none" stroke="#333" stroke-width="2" /><text style="font-family: Inter, sans-serif; font-size: 12px" x="1160.0" y="271.42857142857144">GUILD</text><path d="M 150.0 735.7142857142857 L 292.8571428571429 700.0 L 435.7142857142857 664.2857142857142 L 578.5714285714286 614.2857142857143 L 721.4285714285714 557.1428571428571 L 864.2857142857143 507.14285714285717 L 1007.1428571428571 464.2857142857143 L 1150.0 278.57142857142856" fill="none" stroke="#333" stroke-width="2" /><text style="font-family: Inter, sans-serif; font-size: 12px" x="1160.0" y="278.57142857142856">FURIA</text><path d="M 150.0 628.5714285714286 L 292.8571428571429 614.2857142857143 L 435.7142857142857 614.2857142857143 L 578.5714285714286 542.8571428571429 L 721.4285714285714 499.99999999999994 L 864.2857142857143 499.99999999999994 L 1007.1428571428571 357.14285714285717 L 1150.0 314.2857142857143" fill="none" stroke="#333" stroke-width="2" /><text style="font-family: Inter, sans-serif; font-size: 12px" x="1160.0" y="314.2857142857143">Alliance</text><path d="M 150.0 700.0 L 292.8571428571429 642.8571428571428 L 435.7142857142857 557.1428571428571 L 578.5714285714286 542.8571428571429 L 721.4285714285714 428.5714285714286 L 864.2857142857143 428.5714285714286 L 1007.1428571428571 357.14285714285717 L 1150.0 357.14285714285717" fill="none" stroke="#333" stroke-width="2" /><text style="font-family: Inter, sans-serif; font-size: 12px" x="1160.0" y="357.14285714285717">TSM</text><path d="M 150.0 735.7142857142857 L 292.8571428571429 578.5714285714286 L 435.7142857142857 492.8571428571429 L 578.5714285714286 485.7142857142857 L 721.4285714285714 485.7142857142857 L 864.2857142857143 485.7142857142857 L 1007.1428571428571 435.71428571428567 L 1150.0 385.7142857142857" fill="none" stroke="#333" stroke-width="2" /><text style="font-family: Inter, sans-serif; font-size: 12px" x="1160.0" y="385.7142857142857">Liquid Alienware</text><path d="M 150.0 714.2857142857143 L 292.8571428571429 678.5714285714286 L 435.7142857142857 678.5714285714286 L 578.5714285714286 671.4285714285714 L 721.4285714285714 642.8571428571428 L 864.2857142857143 557.1428571428571 L 1007.1428571428571 450.0 L 1150.0 435.71428571428567" fill="none" stroke="#333" stroke-width="2" /><text style="font-family: Inter, sans-serif; font-size: 12px" x="1160.0" y="435.71428571428567">GoNext</text><path d="M 150.0 742.8571428571429 L 292.8571428571429 714.2857142857143 L 435.7142857142857 642.8571428571428 L 578.5714285714286 607.1428571428571 L 721.4285714285714 585.7142857142857 L 864.2857142857143 585.7142857142857 L 1007.1428571428571 457.1428571428571 L 1150.0 435.71428571428567" fill="none" stroke="#333" stroke-width="2" /><text style="font-family: Inter, sans-serif; font-size: 12px" x="1160.0" y="435.71428571428567">GaiminGladiators</text><path d="M 150.0 728.5714285714286 L 292.8571428571429 635.7142857142858 L 435.7142857142857 607.1428571428571 L 578.5714285714286 528.5714285714286 L 721.4285714285714 514.2857142857142 L 864.2857142857143 507.14285714285717 L 1007.1428571428571 499.99999999999994 L 1150.0 450.0" fill="none" stroke="#333" stroke-width="2" /><text style="font-family: Inter, sans-serif; font-size: 12px" x="1160.0" y="450.0">ShopifyRebellion</text><path d="M 150.0 692.8571428571429 L 292.8571428571429 671.4285714285714 L 435.7142857142857 642.8571428571428 L 578.5714285714286 628.5714285714286 L 721.4285714285714 535.7142857142858 L 864.2857142857143 492.8571428571429 L 1007.1428571428571 471.42857142857144 L 1150.0 471.42857142857144" fill="none" stroke="#333" stroke-width="2" /><text style="font-family: Inter, sans-serif; font-size: 12px" x="1160.0" y="471.42857142857144">Team Falcons</text><path d="M 150.0 735.7142857142857 L 292.8571428571429 664.2857142857142 L 435.7142857142857 614.2857142857143 L 578.5714285714286 600.0 L 721.4285714285714 578.5714285714286 L 864.2857142857143 571.4285714285714 L 1007.1428571428571 528.5714285714286 L 1150.0 478.57142857142856" fill="none" stroke="#333" stroke-width="2" /><text style="font-family: Inter, sans-serif; font-size: 12px" x="1160.0" y="478.57142857142856">Cloud9</text><path d="M 150.0 671.4285714285714 L 292.8571428571429 635.7142857142858 L 435.7142857142857 578.5714285714286 L 578.5714285714286 578.5714285714286 L 721.4285714285714 528.5714285714286 L 864.2857142857143 528.5714285714286 L 1007.1428571428571 521.4285714285716 L 1150.0 514.2857142857142" fill="none" stroke="#333" stroke-width="2" /><text style="font-family: Inter, sans-serif; font-size: 12px" x="1160.0" y="514.2857142857142">100 Thieves</text><path d="M 150.0 678.5714285714286 L 292.8571428571429 678.5714285714286 L 435.7142857142857 664.2857142857142 L 578.5714285714286 657.1428571428571 L 721.4285714285714 642.8571428571428 L 864.2857142857143 535.7142857142858 L 1007.1428571428571 528.5714285714286 L 1150.0 528.5714285714286" fill="none" stroke="#333" stroke-width="2" /><text style="font-family: Inter, sans-serif; font-size: 12px" x="1160.0" y="528.5714285714286">CRAZY RACCOON</text><path d="M 150.0 750.0 L 292.8571428571429 721.4285714285714 L 435.7142857142857 700.0 L 578.5714285714286 607.1428571428571 L 721.4285714285714 600.0 L 864.2857142857143 578.5714285714286 L 1007.1428571428571 571.4285714285714 L 1150.0 535.7142857142858" fill="none" stroke="#333" stroke-width="2" /><text style="font-family: Inter, sans-serif; font-size: 12px" x="1160.0" y="535.7142857142858">Exo Clan</text><path d="M 150.0 750.0 L 292.8571428571429 742.8571428571429 L 435.7142857142857 692.8571428571429 L 578.5714285714286 614.2857142857143 L 721.4285714285714 614.2857142857143 L 864.2857142857143 578.5714285714286 L 1007.1428571428571 578.5714285714286 L 1150.0 550.0" fill="none" stroke="#333" stroke-width="2" /><text style="font-family: Inter, sans-serif; font-size: 12px" x="1160.0" y="550.0">Noctem</text><path d="M 150.0 742.8571428571429 L 292.8571428571429 735.7142857142857 L 435.7142857142857 692.8571428571429 L 578.5714285714286 671.4285714285714 L 721.4285714285714 642.8571428571428 L 864.2857142857143 614.2857142857143 L 1007.1428571428571 578.5714285714286 L 1150.0 564.2857142857142" fill="none" stroke="#333" stroke-width="2" /><text style="font-family: Inter, sans-serif; font-size: 12px" x="1160.0" y="564.2857142857142">Complexity</text><path d="M 150.0 750.0 L 292.8571428571429 750.0 L 435.7142857142857 742.8571428571429 L 578.5714285714286 742.8571428571429 L 721.4285714285714 721.4285714285714 L 864.2857142857143 714.2857142857143 L 1007.1428571428571 678.5714285714286 L 1150.0 600.0" fill="none" stroke="#333" stroke-width="2" /><text style="font-family: Inter, sans-serif; font-size: 12px" x="1160.0" y="600.0">Virtus.pro</text><path d="M 150.0 707.1428571428572 L 292.8571428571429 707.1428571428572 L 435.7142857142857 707.1428571428572 L 578.5714285714286 707.1428571428572 L 721.4285714285714 671.4285714285714 L 864.2857142857143 628.5714285714286 L 1007.1428571428571 628.5714285714286 L 1150.0 621.4285714285714" fill="none" stroke="#333" stroke-width="2" /><text style="font-family: Inter, sans-serif; font-size: 12px" x="1160.0" y="621.4285714285714">FNATIC</text><path d="M 150.0 750.0 L 292.8571428571429 750.0 L 435.7142857142857 750.0 L 578.5714285714286 728.5714285714286 L 721.4285714285714 728.5714285714286 L 864.2857142857143 685.7142857142857 L 1007.1428571428571 678.5714285714286 L 1150.0 664.2857142857142" fill="none" stroke="#333" stroke-width="2" /><text style="font-family: Inter, sans-serif; font-size: 12px" x="1160.0" y="664.2857142857142">GREEN STEGO</text></svg>